# xmcd
#
# Track frame offsets:
#	150
#	16918
#	31501
#	47226
#	62369
#	72597
#	83065
#	95505
#	105874
#	116576
#	130022
#	144830
#	162371
#	175848
#	195792
#	208499
#	225221
#	238621
#	250922
#	264059
#	285054
#	298506
#	308797
#
# Disc length: 4375 seconds
#
# Revision: 1
# Processed by: cddbd v1.5.2PL0 Copyright (c) Steve Scherf et al.
# Submitted via: audiograbber 1.83.01
#
DISCID=20111517
DTITLE=Aus Böhmen kommt die Musik - CD 2 - Musik bringt Freude
DYEAR=1900
DGENRE=Polka
TTITLE0=Polka bringt Freude
TTITLE1=Heimatrosen
TTITLE2=Böhmische Kolatschen
TTITLE3=Walzerlieblinge
TTITLE4=Auf der Kirchweih
TTITLE5=Trompeten-Echo
TTITLE6=Immergrüne-Parade
TTITLE7=Mährische Heimat
TTITLE8=Das Brot schmeckt am besten zu Hause
TTITLE9=Engelberger Polka
TTITLE10=Böhmerländer Trachtenwalzer
TTITLE11=Musik ist unser ganzes Glück
TTITLE12=Hanna-Polka
TTITLE13=Geschichten aus dem Böhmerwald
TTITLE14=Fidele Musikanten
TTITLE15=Auf dem Tanzboden gehts rund
TTITLE16=Koline-Violine
TTITLE17=Wo die Eger fließt
TTITLE18=Um die Wette
TTITLE19=Frohe Tage - frohe Feste
TTITLE20=Mährische Polka-Träume
TTITLE21=Jeder Böhme ist ein Musikant
TTITLE22=Küsse, Liebe und Musik
EXTD=Readers Digest Edition
EXTT0=
EXTT1=
EXTT2=
EXTT3=
EXTT4=
EXTT5=
EXTT6=
EXTT7=
EXTT8=
EXTT9=
EXTT10=
EXTT11=
EXTT12=
EXTT13=
EXTT14=
EXTT15=
EXTT16=
EXTT17=
EXTT18=
EXTT19=
EXTT20=
EXTT21=
EXTT22=
PLAYORDER=
